<svg width="1572" height="582" viewBox="0 0 1572 582" fill="none" xmlns="http://www.w3.org/2000/svg">
<rect width="1572" height="582" fill="white"/>
<path d="M999.805 160.354H969.757C969.152 160.354 968.571 160.594 968.143 161.021C967.715 161.449 967.473 162.028 967.472 162.633V206.331H920.265V162.633C920.265 162.029 920.025 161.449 919.597 161.022C919.17 160.594 918.59 160.354 917.986 160.354H887.932C887.632 160.354 887.335 160.412 887.058 160.526C886.781 160.64 886.529 160.808 886.317 161.02C886.105 161.231 885.936 161.483 885.822 161.76C885.707 162.037 885.648 162.333 885.648 162.633V280.445C885.648 281.71 886.667 282.73 887.932 282.73H917.986C919.245 282.73 920.265 281.71 920.265 280.445V235.003H967.472V280.445C967.472 281.71 968.497 282.73 969.757 282.73H999.805C1001.06 282.73 1002.08 281.71 1002.08 280.445V162.633C1002.08 162.029 1001.84 161.449 1001.42 161.022C1000.99 160.594 1000.41 160.354 999.805 160.354Z" fill="#00ABA8"/>
<path d="M1142.53 279.387L1105.94 219.53L1142.03 163.751C1142.24 163.418 1142.36 163.034 1142.38 162.639C1142.39 162.243 1142.3 161.851 1142.11 161.504C1141.92 161.156 1141.64 160.866 1141.3 160.664C1140.96 160.462 1140.58 160.355 1140.18 160.354H1109.09C1108.71 160.355 1108.34 160.451 1108.02 160.636C1107.69 160.82 1107.41 161.085 1107.21 161.406L1078.73 207.906H1062.05V162.557C1062.05 161.341 1061.07 160.354 1059.85 160.354H1029.8C1029.22 160.355 1028.66 160.588 1028.25 161.001C1027.84 161.414 1027.6 161.973 1027.6 162.557V280.532C1027.6 281.748 1028.59 282.735 1029.8 282.735H1059.85C1061.07 282.735 1062.05 281.748 1062.05 280.532V235.875H1077.86L1104.95 281.655C1105.14 281.983 1105.42 282.255 1105.75 282.444C1106.08 282.633 1106.46 282.733 1106.84 282.735H1140.65C1142.37 282.735 1143.42 280.854 1142.53 279.387Z" fill="#00ABA8"/>
<path d="M1288.39 256.162H1270.99V162.502C1270.99 162.221 1270.93 161.942 1270.82 161.682C1270.71 161.422 1270.56 161.186 1270.36 160.987C1270.16 160.788 1269.92 160.63 1269.66 160.523C1269.4 160.415 1269.12 160.359 1268.84 160.359H1239.04C1238.76 160.359 1238.48 160.414 1238.22 160.521C1237.96 160.628 1237.72 160.786 1237.52 160.985C1237.32 161.184 1237.16 161.421 1237.06 161.681C1236.95 161.941 1236.89 162.22 1236.89 162.502V253.136C1236.89 253.706 1236.67 254.252 1236.26 254.655C1235.86 255.058 1235.31 255.284 1234.74 255.284H1192.01C1191.44 255.283 1190.89 255.056 1190.49 254.653C1190.09 254.251 1189.86 253.705 1189.86 253.136V162.502C1189.86 162.221 1189.8 161.942 1189.7 161.682C1189.59 161.422 1189.43 161.186 1189.23 160.987C1189.03 160.788 1188.8 160.63 1188.54 160.523C1188.28 160.415 1188 160.359 1187.72 160.359H1157.91C1157.63 160.359 1157.35 160.414 1157.09 160.521C1156.83 160.628 1156.59 160.786 1156.39 160.985C1156.2 161.184 1156.04 161.421 1155.93 161.681C1155.82 161.941 1155.77 162.22 1155.77 162.502V280.587C1155.77 281.775 1156.72 282.735 1157.91 282.735H1288.39C1289.64 282.735 1290.66 281.721 1290.66 280.467V258.43C1290.66 257.176 1289.64 256.162 1288.39 256.162Z" fill="#00ABA8"/>
<path d="M731.065 191.736C725.356 183.639 716.987 177.468 705.973 173.21C697.516 169.938 687.511 167.938 675.99 167.185V156.826C675.991 156.532 675.933 156.241 675.821 155.969C675.709 155.698 675.545 155.45 675.337 155.242C675.13 155.034 674.883 154.869 674.611 154.756C674.34 154.644 674.049 154.586 673.755 154.586H646.585C646.291 154.586 646 154.644 645.728 154.756C645.457 154.869 645.21 155.034 645.003 155.242C644.795 155.45 644.63 155.698 644.518 155.969C644.406 156.241 644.349 156.532 644.35 156.826V167.245C633.172 168.047 623.38 169.998 614.972 173.122C603.664 177.32 595.125 183.465 589.357 191.567C583.588 199.668 580.704 209.542 580.704 221.193C580.704 232.735 583.588 242.554 589.357 250.655C595.125 258.751 603.636 264.901 614.885 269.099C623.287 272.234 633.112 274.197 644.35 274.987V286.262C644.349 286.556 644.406 286.847 644.518 287.119C644.63 287.391 644.795 287.638 645.003 287.846C645.21 288.054 645.457 288.22 645.728 288.332C646 288.445 646.291 288.503 646.585 288.503H673.755C674.049 288.503 674.34 288.445 674.611 288.332C674.883 288.22 675.13 288.054 675.337 287.846C675.545 287.638 675.709 287.391 675.821 287.119C675.933 286.847 675.991 286.556 675.99 286.262V275.107C687.833 274.42 698.111 272.409 706.763 269.012C717.603 264.76 725.787 258.582 731.327 250.475C736.855 242.385 739.631 232.62 739.631 221.193C739.631 209.656 736.774 199.843 731.065 191.736ZM634.639 246.021C627.938 244.162 622.867 241.185 619.432 237.107C615.992 233.029 614.274 227.724 614.274 221.193C614.274 214.552 615.844 209.22 618.996 205.197C622.142 201.178 627.038 198.234 633.679 196.37C636.798 195.497 640.38 194.843 644.35 194.38V247.896C640.838 247.439 637.561 246.833 634.639 246.021ZM701.513 236.753C698.481 240.836 693.759 243.867 687.358 245.841C683.646 246.943 679.841 247.702 675.99 248.109V194.26C679.778 194.654 683.523 195.39 687.178 196.457C693.47 198.382 698.192 201.326 701.338 205.289C704.49 209.247 706.06 214.498 706.06 221.024C706.06 227.435 704.55 232.675 701.513 236.753Z" fill="#00ABA8"/>
<path d="M817.249 285.178C807.571 285.178 798.629 283.629 790.407 280.544C782.195 277.458 775.08 273.058 769.082 267.344C763.076 261.633 758.287 254.766 755.004 247.156C751.624 239.408 749.939 230.871 749.939 221.542C749.939 212.219 751.624 203.681 755.004 195.929C758.291 188.319 763.079 181.451 769.082 175.735C775.08 170.032 782.195 165.627 790.407 162.535C798.629 159.455 807.571 157.907 817.249 157.907C828.552 157.907 838.666 159.891 847.581 163.849C855.616 167.361 862.755 172.638 868.469 179.289C868.847 179.743 869.035 180.326 868.993 180.915C868.951 181.505 868.684 182.055 868.246 182.451L849.495 199.429C849.053 199.817 848.475 200.015 847.888 199.979C847.301 199.943 846.751 199.677 846.36 199.238C842.799 195.389 838.955 192.396 834.817 190.248C830.095 187.8 824.822 186.573 818.999 186.573C813.983 186.573 809.376 187.391 805.183 189.027C801.124 190.573 797.454 192.99 794.431 196.109C791.386 199.308 789.01 203.081 787.441 207.209C785.745 211.521 784.905 216.297 784.905 221.542C784.905 226.792 785.745 231.568 787.441 235.881C789.011 240.006 791.387 243.778 794.431 246.976C797.451 250.098 801.122 252.516 805.183 254.058C809.376 255.693 813.983 256.506 818.999 256.506C824.822 256.506 830.095 255.285 834.817 252.837C838.955 250.689 842.799 247.695 846.36 243.852C846.75 243.413 847.299 243.147 847.885 243.111C848.471 243.076 849.048 243.273 849.489 243.661L868.235 260.617C868.676 261.015 868.945 261.57 868.984 262.163C869.024 262.756 868.831 263.341 868.447 263.795C862.693 270.37 855.572 275.608 847.581 279.143C838.666 283.166 828.552 285.178 817.249 285.178Z" fill="#00ABA8"/>
<path d="M636.498 358.948C631.836 357.067 626.258 356.07 619.868 355.868V349.625H613.799V355.868C607.425 356.064 601.848 357.062 597.169 358.948C591.951 361.064 587.928 364.095 585.12 368.053C582.301 372.017 580.899 376.814 580.899 382.441C580.899 388.067 582.301 392.876 585.12 396.867C587.928 400.858 591.951 403.889 597.169 405.972C601.848 407.842 607.425 408.823 613.799 409.014V415.436H619.868V409.019C626.264 408.839 631.863 407.858 636.59 405.972C641.808 403.889 645.81 400.858 648.602 396.867C651.388 392.876 652.784 388.067 652.784 382.441C652.784 376.814 651.366 372.017 648.558 368.053C645.74 364.095 641.727 361.064 636.498 358.948ZM600.91 401.528C596.482 399.887 593.086 397.477 590.708 394.272C588.326 391.071 587.142 387.135 587.142 382.441C587.142 377.807 588.315 373.892 590.665 370.692C592.998 367.497 596.373 365.076 600.773 363.435C604.465 362.061 608.838 361.293 613.799 361.069V403.894C608.93 403.665 604.607 402.908 600.91 401.528ZM643.101 394.103C640.816 397.298 637.485 399.729 633.112 401.392C629.366 402.831 624.928 403.638 619.868 403.884V361.053C624.939 361.249 629.382 362.034 633.112 363.473C637.43 365.153 640.74 367.573 643.057 370.735C645.374 373.903 646.536 377.807 646.536 382.441C646.536 387.021 645.385 390.908 643.101 394.103Z" fill="#00ABA8"/>
<path d="M699.671 397.352L672.932 351.73H667.567V413.315H673.81V364.357L698.008 405.486H701.088L725.281 364.068V413.315H731.529V351.73H726.164L699.671 397.352Z" fill="#00ABA8"/>
<path d="M778.861 377.42H758.719V357.269H797.344V351.73H752.296V413.315H777.454C785.087 413.315 790.932 411.734 795.005 408.572C799.084 405.405 801.128 400.858 801.128 394.926C801.128 389.185 799.231 384.829 795.447 381.863C791.668 378.908 786.134 377.42 778.861 377.42ZM790.262 404.827C787.361 407.029 783.064 408.131 777.372 408.131H758.719V382.615H777.372C788.866 382.615 794.607 386.808 794.607 395.198C794.607 399.424 793.162 402.63 790.262 404.827Z" fill="#00ABA8"/>
<path d="M835.266 351.73L807.11 413.321H813.882L821.243 396.867H855.62L862.981 413.321H869.846L841.689 351.73H835.266ZM823.609 391.589L838.429 358.474L853.254 391.589H823.609Z" fill="#00ABA8"/>
<path d="M941.194 354.243C937.443 352.569 932.955 351.73 927.737 351.73H904.684V413.315H911.195V393.879H927.737C932.955 393.879 937.443 393.023 941.194 391.322C944.945 389.627 947.835 387.206 949.858 384.06C951.881 380.931 952.9 377.191 952.9 372.851C952.9 368.386 951.881 364.596 949.858 361.451C947.835 358.321 944.945 355.911 941.194 354.243ZM941.592 384.158C938.397 386.83 933.724 388.16 927.563 388.16H911.195V357.367H927.563C933.724 357.367 938.397 358.719 941.592 361.407C944.787 364.111 946.39 367.928 946.39 372.851C946.39 377.714 944.787 381.487 941.592 384.158Z" fill="#00ABA8"/>
<path fill-rule="evenodd" clip-rule="evenodd" d="M995.441 414.85C1013.36 414.85 1027.88 400.78 1027.88 383.425C1027.88 366.07 1013.36 352 995.441 352C977.524 352 963 366.07 963 383.425C963 400.78 977.524 414.85 995.441 414.85ZM995.441 409.028C1009.78 409.028 1021.41 397.573 1021.41 383.443C1021.41 369.313 1009.78 357.858 995.441 357.858C981.099 357.858 969.473 369.313 969.473 383.443C969.473 397.573 981.099 409.028 995.441 409.028Z" fill="#00ABA8"/>
<path d="M1050.57 364.269C1052.91 361.952 1055.67 360.164 1058.85 358.905C1062.12 357.623 1065.62 356.979 1069.14 357.007C1072.66 357.007 1075.94 357.585 1079 358.725C1082.16 359.947 1085.02 361.855 1087.35 364.313L1091.49 360.18C1088.76 357.17 1085.35 354.86 1081.55 353.447C1077.52 351.932 1073.26 351.171 1068.96 351.201C1064.33 351.201 1060.04 351.975 1056.11 353.54C1052.29 355.016 1048.81 357.242 1045.86 360.088C1042.96 362.91 1040.66 366.293 1039.1 370.032C1037.45 373.989 1036.63 378.238 1036.68 382.523C1036.68 387.037 1037.48 391.208 1039.1 395.024C1040.65 398.752 1042.94 402.131 1045.82 404.963C1048.75 407.809 1052.22 410.036 1056.03 411.511C1060.12 413.103 1064.48 413.896 1068.87 413.85C1073.39 413.85 1077.61 413.087 1081.55 411.555C1085.35 410.118 1088.76 407.799 1091.49 404.789L1087.35 400.651C1085.01 403.114 1082.16 405.037 1079 406.288C1075.85 407.473 1072.5 408.064 1069.14 408.033C1065.45 408.033 1062.01 407.406 1058.85 406.152C1055.75 404.941 1052.94 403.116 1050.57 400.787C1048.23 398.469 1046.37 395.717 1045.08 392.685C1043.73 389.468 1043.06 386.01 1043.1 382.523C1043.1 378.832 1043.76 375.441 1045.08 372.371C1046.36 369.339 1048.23 366.587 1050.57 364.269Z" fill="#00ABA8"/>
<path d="M1112.24 364.269C1114.6 361.939 1117.42 360.114 1120.51 358.905C1123.79 357.622 1127.29 356.978 1130.81 357.007C1134.32 357.007 1137.61 357.585 1140.67 358.725C1143.83 359.947 1146.68 361.855 1149.02 364.313L1153.16 360.18C1150.43 357.17 1147.02 354.86 1143.21 353.447C1139.19 351.932 1134.93 351.171 1130.63 351.201C1125.99 351.201 1121.71 351.975 1117.78 353.54C1113.96 355.017 1110.48 357.243 1107.53 360.088C1104.63 362.912 1102.33 366.294 1100.77 370.032C1099.12 373.989 1098.3 378.238 1098.34 382.523C1098.34 387.037 1099.15 391.208 1100.77 395.024C1102.32 398.751 1104.61 402.13 1107.49 404.963C1110.42 407.809 1113.89 410.036 1117.69 411.511C1121.79 413.103 1126.15 413.896 1130.54 413.85C1135.06 413.85 1139.28 413.087 1143.21 411.555C1147.02 410.118 1150.42 407.799 1153.16 404.789L1149.02 400.651C1146.68 403.114 1143.83 405.037 1140.67 406.288C1137.52 407.472 1134.17 408.064 1130.81 408.033C1127.12 408.033 1123.68 407.406 1120.51 406.152C1117.42 404.94 1114.61 403.115 1112.24 400.787C1109.9 398.467 1108.03 395.716 1106.75 392.685C1105.4 389.468 1104.73 386.01 1104.77 382.523C1104.77 378.832 1105.43 375.441 1106.75 372.371C1108.03 369.34 1109.9 366.588 1112.24 364.269Z" fill="#00ABA8"/>
<path d="M1173.05 402.766V351.73H1166.63V413.315H1172.51L1211.94 362.383V413.315H1218.36V351.73H1212.46L1173.05 402.766Z" fill="#00ABA8"/>
<path d="M1284.96 351.73L1245.55 402.766V351.73H1239.12V413.321H1245.01L1284.43 362.383V413.321H1290.86V351.73H1284.96Z" fill="#00ABA8"/>
<path d="M460.15 172.599C436.323 170.326 413.602 174.289 391.449 181.339V152.061C391.449 148.423 390.004 144.934 387.431 142.362C384.858 139.789 381.369 138.344 377.731 138.344H320.039C316.401 138.346 312.912 139.791 310.34 142.363C307.768 144.936 306.322 148.424 306.321 152.061V223.27H234.91C233.108 223.269 231.324 223.623 229.659 224.312C227.994 225.001 226.481 226.012 225.206 227.286C223.932 228.559 222.921 230.072 222.231 231.736C221.542 233.401 221.187 235.185 221.187 236.987V294.675C221.187 296.714 221.645 298.638 222.441 300.377C211.263 315.109 201.65 331.116 194.164 348.851C186.684 366.575 183.336 385.047 188.679 404.232C191.863 415.687 199.044 424.356 210.598 429.301C199.104 414.869 198.57 399.249 201.65 383.444C203.402 374.43 206.223 365.658 210.053 357.312C218.28 339.512 228.94 323.341 241.393 308.392H391.449V203.937C413.264 196.299 435.63 191.85 458.906 193.644C475.324 194.909 490.612 199.641 501.261 213.238C505.323 218.428 507.88 224.791 511.315 230.968L511.713 231.829C511.713 231.829 512.106 230.434 512.106 228.733C512.106 196.746 492.221 175.658 460.15 172.599Z" fill="#CA2A87"/>
<path d="M491.99 241.087C490.705 237.669 488.905 234.468 486.652 231.595C470.998 211.532 449.172 211.526 426.986 213.527C424.647 213.8 420.672 214.302 420.672 214.302C420.672 214.302 424.69 215.354 426.86 215.697C429.145 216.079 431.424 216.482 433.714 216.831C441.32 217.992 447.809 220.151 453.07 223.265H409.255V308.386H446.991C445.072 311.112 443.114 313.8 441.086 316.417C431.495 328.799 420.585 339.839 408.688 349.794C403.128 354.416 397.378 358.803 391.452 362.945V326.187H306.324V379.797C306.323 381.598 306.678 383.382 307.367 385.047C308.056 386.711 309.066 388.224 310.34 389.498C311.614 390.772 313.127 391.782 314.792 392.471C316.456 393.16 318.24 393.515 320.042 393.514H334.895C334.169 393.786 333.45 394.103 332.719 394.364C317.109 400.002 300.79 403.382 283.326 403.109C252.323 402.63 234.788 378.019 245.219 348.688C247.465 342.374 249.646 336.039 251.86 329.709C242.596 339.975 236.473 351.899 232.476 364.847C228.714 377.038 226.604 389.545 230.868 402.041C237.771 422.289 254.09 429.693 273.582 431.291C303.93 433.771 331.781 423.98 358.553 411.331C360.69 410.322 362.762 409.216 364.867 408.163C380.218 400.533 394.88 391.588 408.688 381.427C424.499 369.726 439.058 356.421 452.132 341.725C459.351 333.607 466.189 325.25 472.214 316.417C481.472 302.842 488.8 288.149 492.513 271.444C494.825 261.074 495.583 250.65 491.99 241.087Z" fill="#00ABA8"/>
</svg>
